# xmcd
#
# Track frame offsets:
# 150
# 34764
# 50688
# 62239
# 80836
# 95120
# 114729
# 132273
# 171392
# 188926
# 202125
#
# Disc length: 3044 seconds
#
#
# Revision: 8
# Processed by: cddbd v1.5.1PL0 Copyright (c) Steve Scherf et al.
# Submitted via: FreeRIP 2.30 
#
DISCID=ae0be20b
DTITLE=Axelle Red - Toujours moi
DYEAR=1999
DGENRE=Chanson
TTITLE0=Faire des mamours
TTITLE1=Mon futur proche
TTITLE2=Ce matin
TTITLE3=Parce que c'est toi
TTITLE4=A 82 ans
TTITLE5=La réponse
TTITLE6=Bimbo à moi
TTITLE7=Stay or not
TTITLE8=J'ai jamais dit (Je serais ton amie)
TTITLE9=Quitter tôt
TTITLE10=Toujours moi
EXTD=ID3G: 102
EXTT0=
EXTT1=
EXTT2=
EXTT3=
EXTT4=
EXTT5=
EXTT6=
EXTT7=
EXTT8=
EXTT9=
EXTT10=
PLAYORDER=
